<svg id="Layer_1" data-name="Layer 1" xmlns="http://www.w3.org/2000/svg" viewBox="0 0 141.36 50"><defs><style>.cls-1{fill:#355c7c;}.cls-2{fill:#fff;}.cls-3{fill:#ff7583;}</style></defs><path class="cls-1" d="M1.83,24.32V47.84a33.67,33.67,0,0,0,4.41.3,33.67,33.67,0,0,0,4.41-.3V40c-.2-.21-.42-.41-.62-.63A33.1,33.1,0,0,1,1.83,24.32Z"/><path class="cls-1" d="M60,39.86v8a32.64,32.64,0,0,0,8.83,0V24a33.22,33.22,0,0,1-8.2,15.26C60.37,39.45,60.16,39.65,60,39.86Z"/><path class="cls-2" d="M67,25.28c-.34,1-.72,1.94-1.14,2.87C66.24,27.22,66.62,26.26,67,25.28Z"/><path class="cls-2" d="M9.73,36.07a33.84,33.84,0,0,1-3.25-4.52A33.84,33.84,0,0,0,9.73,36.07Z"/><path class="cls-2" d="M65.82,28.15c-.43.93-.89,1.84-1.39,2.73C64.93,30,65.39,29.08,65.82,28.15Z"/><path class="cls-2" d="M68.43,19.2a31.89,31.89,0,0,1-1,4.6A31.89,31.89,0,0,0,68.43,19.2Z"/><path class="cls-3" d="M68.78,14.38V2.16c-.79-.1-3.74-.3-4.41-.3a33.94,33.94,0,0,0-4.42.3V17.24a24.86,24.86,0,0,1-49.3.7V2.16a33.67,33.67,0,0,0-4.41-.3,33.67,33.67,0,0,0-4.41.3v.1h0S1.74,13.6,1.74,14.38s0,1.55.09,2.32A33.32,33.32,0,0,0,6.48,31.55a66.72,66.72,0,0,0,4.17,5.56A33.46,33.46,0,0,0,60,37a33.9,33.9,0,0,0,4.48-6.14c.5-.89,2.19-4.62,2.53-5.6.17-.49,1.25-4.51,1.47-6.08a33.35,33.35,0,0,0,.35-4.82Z"/><path class="cls-1" d="M87.8,27.87V21.46l-3.14,5.28H83.53L80.41,21.6v6.27H78.09V17.2h2l4,6.63,3.93-6.63h2l0,10.67Z"/><path class="cls-1" d="M105.8,24.44H99.59a2.19,2.19,0,0,0,2.35,1.64,2.79,2.79,0,0,0,2.06-.79l1.27,1.37A4.32,4.32,0,0,1,101.88,28c-2.83,0-4.68-1.78-4.68-4.22a4.18,4.18,0,0,1,4.38-4.23,4.06,4.06,0,0,1,4.26,4.26C105.84,24,105.81,24.24,105.8,24.44Zm-6.24-1.39h4a2,2,0,0,0-4,0Z"/><path class="cls-1" d="M121.22,19.67V26.5c0,3-1.64,4.45-4.6,4.45a6.74,6.74,0,0,1-4-1.13l1-1.71a4.92,4.92,0,0,0,2.9.93c1.67,0,2.4-.76,2.4-2.24v-.35a3.35,3.35,0,0,1-2.59,1,4,4,0,1,1,0-7.93A3.32,3.32,0,0,1,119,20.72v-1Zm-2.34,3.84a2.17,2.17,0,0,0-4.32,0,2.17,2.17,0,0,0,4.32,0Z"/><path class="cls-1" d="M136,23.19v4.68h-2.23v-1a2.7,2.7,0,0,1-2.5,1.14c-1.92,0-3.06-1.07-3.06-2.49s1-2.45,3.52-2.45h1.89c0-1-.61-1.62-1.89-1.62a3.88,3.88,0,0,0-2.36.77l-.85-1.66a6.21,6.21,0,0,1,3.53-1C134.57,19.54,136,20.7,136,23.19Zm-2.38,2.09v-.84H132c-1.11,0-1.46.41-1.46,1s.5,1,1.34,1A1.75,1.75,0,0,0,133.64,25.28Z"/><path class="cls-3" d="M87.8,46.16V39.75L84.65,45H83.53l-3.12-5.14v6.27H78.09V35.48h2l4,6.64,3.93-6.64h2l0,10.68Z"/><path class="cls-3" d="M105.07,41.48v4.68h-2.23v-1a2.68,2.68,0,0,1-2.5,1.15c-1.92,0-3.06-1.07-3.06-2.49s1-2.45,3.52-2.45h1.89c0-1-.61-1.62-1.89-1.62a3.94,3.94,0,0,0-2.36.76l-.86-1.66a6.32,6.32,0,0,1,3.54-1C103.62,37.83,105.07,39,105.07,41.48Zm-2.38,2.08v-.83h-1.63c-1.11,0-1.47.41-1.47,1s.51,1,1.35,1A1.75,1.75,0,0,0,102.69,43.56Z"/><path class="cls-3" d="M112.55,34.84h2.38V46.16h-2.38Z"/><path class="cls-3" d="M122.47,34.84h2.38V46.16h-2.38Z"/></svg>