<?xml version="1.0" encoding="iso-8859-1"?>
<!-- Generator: Adobe Illustrator 19.0.0, SVG Export Plug-In . SVG Version: 6.00 Build 0)  -->
<svg version="1.1" id="Capa_1" xmlns="http://www.w3.org/2000/svg" xmlns:xlink="http://www.w3.org/1999/xlink" x="0px" y="0px"
	 viewBox="0 0 512.001 512.001" style="enable-background:new 0 0 512.001 512.001;" xml:space="preserve">
<g>
	<g>
		<path d="M501.974,327.989h-24.316l9.987-64.956c0.198-1.287,0.127-2.581-0.166-3.82c0.271-0.39,0.55-0.778,0.816-1.169
			c21.177-31.172,23.592-66.042,23.685-67.511c0.227-3.614-1.517-7.069-4.561-9.032c-3.044-1.963-6.911-2.129-10.108-0.428
			c-1.068,0.566-20.769,11.17-39.379,30.164c-3.538-34.451-18.648-60.367-19.372-61.591c-1.8-3.041-5.072-4.906-8.605-4.906
			c-0.002,0-0.005,0-0.007,0c-3.537,0.003-6.809,1.873-8.605,4.919c-0.719,1.218-15.618,26.847-19.227,60.995
			c-18.68-18.839-38.486-29.104-39.559-29.653c-3.2-1.635-7.031-1.428-10.034,0.545c-3.004,1.971-4.72,5.402-4.495,8.988
			c0.093,1.47,2.508,36.338,23.685,67.511c0.265,0.391,0.544,0.779,0.816,1.169c-0.293,1.239-0.364,2.532-0.166,3.82l9.987,64.956
			h-34.362V174.128c0-5.522-4.477-9.999-9.999-9.999h-42.31c-5.523,0-10,4.478-10,9.999s4.477,10,10,10h32.31v143.862H183.998
			V184.127h27.685c5.523,0,10-4.478,10-10s-4.477-9.999-10-9.999h-27.685V10.013c0-5.522-4.477-10-10-10H10c-5.523,0-10,4.478-10,10
			v164.115v0.138v327.722c0,5.522,4.477,10,10,10h491.975c5.523,0,10-4.478,10-10v-164
			C511.974,332.466,507.497,327.989,501.974,327.989z M120.02,491.491c0,0.274-0.223,0.497-0.497,0.497H20.522
			c-0.274,0-0.497-0.223-0.497-0.497v-29.391c0-0.274,0.223-0.497,0.497-0.497H87.7h31.823c0.274,0,0.497,0.223,0.497,0.497V491.491
			z M20.025,441.108v-19.3c0-0.274,0.223-0.497,0.497-0.497H87.7c0.274,0,0.497,0.223,0.497,0.497v19.3
			c0,0.274-0.223,0.497-0.497,0.497H20.522C20.248,441.605,20.025,441.382,20.025,441.108z M163.989,491.987h-23.995
			c0.004-0.167,0.025-0.329,0.025-0.497V462.1c0-11.3-9.195-20.495-20.496-20.495h-11.352c0.004-0.167,0.025-0.329,0.025-0.497
			v-19.3c0-11.301-9.195-20.496-20.496-20.496H20.522c-0.177,0-0.347,0.022-0.523,0.026v-53.351h143.99V491.987z M52.001,266h-2
			v-27.999h83.996V266h-2H52.001z M121.998,285.999v41.99H62.001v-41.99H121.998z M163.989,327.989h-21.992v-41.99h2
			c5.523,0,9.999-4.478,9.999-10v-47.998c0-5.522-4.477-9.999-9.999-9.999H40.002c-5.523,0-9.999,4.478-9.999,9.999v47.998
			c0,5.522,4.477,10,9.999,10h2v41.99H19.999V184.265h143.99V327.989z M114.902,113.171c6.824,7.705,10.581,17.614,10.581,27.905
			v23.053H58.515v-23.053c0-10.29,3.758-20.2,10.581-27.904c10.065-11.363,15.609-25.983,15.609-41.164V57.011h14.589v14.997
			C99.294,87.188,104.837,101.807,114.902,113.171z M163.999,164.128h-18.516v-23.053c0-15.181-5.543-29.8-15.609-41.165
			c-6.823-7.703-10.58-17.612-10.58-27.903V47.011c0-5.522-4.477-10-10-10H74.705c-5.523,0-10,4.478-10,10v24.997
			c0,10.291-3.758,20.2-10.581,27.904c-10.065,11.364-15.608,25.984-15.608,41.164v23.053H19.999V20.012h144V164.128z
			 M237.567,491.491c0,0.274-0.223,0.497-0.497,0.497h-19.299c-0.274,0-0.497-0.223-0.497-0.497v-67.179
			c0-0.274,0.223-0.497,0.497-0.497h19.299c0.274,0,0.497,0.223,0.497,0.497V491.491z M277.604,491.491
			c0,0.274-0.223,0.497-0.497,0.497h-19.044c-0.274,0-0.497-0.223-0.497-0.497v-67.179V392.49c0-0.274,0.223-0.497,0.497-0.497
			h19.044c0.274,0,0.497,0.223,0.497,0.497V491.491z M277.107,371.993h-19.044c-11.301,0-20.496,9.195-20.496,20.496v11.351
			c-0.167-0.004-0.329-0.025-0.497-0.025h-19.299c-11.301,0-20.496,9.195-20.496,20.496v67.179c0,0.168,0.021,0.33,0.025,0.497
			h-13.302v-144h143.978v24.031c-0.163-0.004-0.322-0.025-0.486-0.025h-29.391c-3.838,0.001-7.421,1.081-10.495,2.925
			C284.529,373.074,280.946,371.993,277.107,371.993z M327.976,491.547c-0.029,0.247-0.232,0.441-0.486,0.441H298.1
			c-0.274,0-0.497-0.223-0.497-0.497V392.49c0-0.274,0.223-0.497,0.497-0.497h29.391c0.254,0,0.457,0.195,0.486,0.442V491.547z
			 M457.523,243.009c0.406-0.416,0.786-0.866,1.124-1.363c8.592-12.646,19.729-22.889,29.117-30.191
			c-2.947,10.511-7.866,23.362-16.012,35.352c-1.073,1.579-2.208,3.152-3.396,4.707h-12.162
			C456.72,248.665,457.165,245.829,457.523,243.009z M429.989,179.022c4.335,11.872,8.678,28.261,8.689,46.29
			c0.005,8.475-0.952,17.258-2.852,26.202h-11.611c-1.911-8.937-2.879-17.716-2.885-26.186
			C421.318,207.373,425.66,190.939,429.989,179.022z M422.176,271.513h15.657h5.872h22.404l-8.684,56.476h-54.843l-8.683-56.476
			h22.448H422.176z M372.111,210.987c9.464,7.176,20.753,17.36,29.411,30.107c0.269,0.396,0.568,0.756,0.88,1.1
			c0.378,3.09,0.858,6.198,1.438,9.322h-12.19c-1.188-1.555-2.324-3.128-3.396-4.707
			C379.987,234.637,375.043,221.58,372.111,210.987z M491.975,491.988h-89.969v-66.997c0-5.522-4.477-9.999-10-9.999
			c-5.523,0-10,4.478-10,9.999v66.997h-34.02v-0.497V392.49v-44.503h143.989V491.988z"/>
	</g>
</g>
<g>
	<g>
		<path d="M263.083,167.054c-1.86-1.86-4.44-2.93-7.07-2.93s-5.21,1.069-7.07,2.93c-1.86,1.86-2.93,4.44-2.93,7.07
			c0,2.64,1.07,5.21,2.93,7.069c1.86,1.869,4.44,2.94,7.07,2.94s5.21-1.07,7.07-2.94c1.86-1.859,2.93-4.43,2.93-7.069
			C266.013,171.494,264.943,168.914,263.083,167.054z"/>
	</g>
</g>
<g>
	<g>
		<path d="M399.076,377.172c-1.86-1.86-4.44-2.93-7.07-2.93s-5.21,1.069-7.07,2.93c-1.86,1.86-2.93,4.44-2.93,7.07
			s1.07,5.21,2.93,7.069c1.86,1.86,4.44,2.931,7.07,2.931s5.21-1.07,7.07-2.931c1.86-1.859,2.93-4.439,2.93-7.069
			S400.936,379.032,399.076,377.172z"/>
	</g>
</g>
<g>
</g>
<g>
</g>
<g>
</g>
<g>
</g>
<g>
</g>
<g>
</g>
<g>
</g>
<g>
</g>
<g>
</g>
<g>
</g>
<g>
</g>
<g>
</g>
<g>
</g>
<g>
</g>
<g>
</g>
</svg>
