<svg id="Capa_1" enable-background="new 0 0 512.008 512.008" height="512" viewBox="0 0 512.008 512.008" width="512" xmlns="http://www.w3.org/2000/svg"><g><path d="m511.214 324.514c2.61 7.72-1.42 16.12-9.08 18.91l-40.479 14.73c-7.892 2.872-16.624-1.301-19.332-9.27l-36.32-106.89v-59.14l24.26-97.03z"/><path d="m106.004 212.494v29.54l-36.328 106.852c-2.703 7.951-11.424 12.145-19.332 9.267l-40.47-14.729c-7.66-2.79-11.69-11.19-9.08-18.91l80.27-236.7z"/><path d="m256.004 76.004c24.81 0 45-20.19 45-45v-15h-90v15c0 24.81 20.19 45 45 45z"/><path d="m331.004 256.864c-8.125 7.809-17.815 29.14-37.5 29.14-19.669 0-29.392-21.348-37.5-29.14-8.125 7.809-17.815 29.14-37.5 29.14-19.669 0-29.392-21.348-37.5-29.14-8.125 7.809-17.815 29.14-37.5 29.14-2.46 0-4.95-.34-7.5-1.04v196.04c0 8.284 6.716 15 15 15h210c8.284 0 15-6.716 15-15v-196.04c-2.55.7-5.04 1.04-7.5 1.04-19.669 0-29.392-21.348-37.5-29.14z"/><path d="m376.004 194.964v56.04c-2.74 2.29-5.15 3.95-6.89 4.68-7.875-6.607-17.716-29.68-38.11-29.68-19.67 0-29.392 21.348-37.5 29.14-8.13-7.814-17.815-29.14-37.5-29.14-19.67 0-29.392 21.348-37.5 29.14-8.13-7.814-17.815-29.14-37.5-29.14-20.383 0-30.244 23.08-38.11 29.68-1.74-.73-4.15-2.39-6.89-4.67v-40.01c0-2.55-.4-3.07-3.11-17.05 26.21 9.94 39.09-18.43 48.11-27.09 8.11 7.79 17.83 29.14 37.5 29.14 19.69 0 29.37-21.33 37.5-29.14 8.11 7.79 17.83 29.14 37.5 29.14 19.69 0 29.37-21.33 37.5-29.14 7.52 7.23 16.34 25.96 33.17 28.77 3.48.63 7.58.5 11.83-.67z"/><path d="m409.224 46.264-27.34 109.38c-2.98 2.93-8.92 8.42-12.77 10.04-7.87-6.6-17.73-29.68-38.11-29.68-19.69 0-29.37 21.33-37.5 29.14-8.11-7.79-17.83-29.14-37.5-29.14-19.69 0-29.37 21.33-37.5 29.14-8.11-7.79-17.83-29.14-37.5-29.14-20.39 0-30.23 23.07-38.11 29.68-5.44-2.31-14.8-11.86-18.96-16.55l-20.61-103.05 77.68-25.89v10.81c0 41.36 33.65 75 75 75s75-33.64 75-75v-10.81z"/></g></svg>