<svg id="Capa_1" enable-background="new 0 0 512 512" height="512" viewBox="0 0 512 512" width="512" xmlns="http://www.w3.org/2000/svg"><g><path d="m241 482v-121c0-16.569-13.431-30-30-30s-30 13.431-30 30v121c0 16.567 13.431 30 30 30s30-13.433 30-30z"/><path d="m482 331c-16.569 0-30 13.431-30 30v121c0 16.567 13.431 30 30 30s30-13.433 30-30v-121c0-16.569-13.431-30-30-30z"/><path d="m271 391h151v60h-151z"/><circle cx="151" cy="241" r="30"/><path d="m56.556 357.704c2.719 2.175 6.172 3.296 9.655 3.296h84.789c0-33.091 26.909-60 60-60 24.441 0 45.427 14.727 54.772 35.735 21.856-25.922 35.228-59.151 35.228-95.735 0-48.915-23.767-92.939-60-120.321v-30.679c0-49.629-40.371-90-90-90s-90 40.371-90 90l-1 30.679c-36.233 27.382-60 71.406-60 120.321 0 47.362 22.249 89.242 56.556 116.704zm94.444-56.704c-33.091 0-60-26.909-60-60s26.909-60 60-60 60 26.909 60 60-26.909 60-60 60zm-60-211c0-33.091 26.909-60 60-60s60 26.909 60 60v12.664c-18.397-8.052-38.633-12.664-60-12.664s-41.603 4.612-60 12.664z"/></g></svg>